# xmcd CD database file
# 
# Track frame offsets:
# 	150
# 	22188
# 	44515
# 	64503
# 	103261
# 	128765
# 	142265
# 	162452
# 
# Disc length: 2428 seconds
# 
# Submitted via: Nero 5.5.6.9
# 
# Revision: 0
# Processed by: cddbd v1.4PL0 Copyright (c) Steve Scherf et al.
#
DISCID=78097a08
DTITLE=Deaf Dog Blues Band - Just Friends
DYEAR=1900
DGENRE=
TTITLE0=Lies
TTITLE1=Just Friends
TTITLE2=Say I love you
TTITLE3=If you just try
TTITLE4=Blues for Al and Peg
TTITLE5=Good morning little schoolgirl
TTITLE6=Let me love you baby
TTITLE7=I need money
EXTD=Call Niek van Ek to order this: +31-76-5933412
EXTT0=
EXTT1=
EXTT2=
EXTT3=
EXTT4=
EXTT5=
EXTT6=
EXTT7=
PLAYORDER=
